<?xml version="1.0" standalone="no"?>
<!DOCTYPE svg PUBLIC "-//W3C//DTD SVG 20010904//EN"
 "http://www.w3.org/TR/2001/REC-SVG-20010904/DTD/svg10.dtd">
<svg version="1.0" xmlns="http://www.w3.org/2000/svg"
 width="820.000000pt" height="820.000000pt" viewBox="0 0 820.000000 820.000000"
 preserveAspectRatio="xMidYMid meet">
<metadata>
Created by potrace 1.15, written by Peter Selinger 2001-2017
</metadata>
<g transform="translate(0.000000,820.000000) scale(0.100000,-0.100000)"
fill="#000000" stroke="none">
<path d="M710 6754 c-45 -20 -96 -69 -123 -119 -30 -56 -30 -164 0 -220 28
-52 67 -89 123 -114 42 -19 65 -21 381 -21 l336 0 61 -162 c51 -139 597 -1585
921 -2443 278 -735 331 -875 331 -879 0 -2 -21 -17 -47 -32 -104 -60 -227
-203 -280 -325 -37 -84 -56 -180 -56 -284 -1 -207 65 -370 210 -518 136 -138
303 -207 503 -207 162 0 291 44 427 143 212 157 324 458 268 722 -8 38 -15 73
-15 77 0 5 327 8 726 8 686 0 725 -1 720 -17 -35 -115 -38 -280 -7 -396 61
-233 239 -425 466 -503 114 -39 287 -46 401 -14 127 35 227 93 319 185 93 93
135 160 178 282 29 82 31 97 32 228 0 108 -4 154 -18 200 -74 241 -243 416
-482 499 -59 20 -76 21 -1455 26 l-1395 5 -62 165 c-35 91 -63 168 -63 173 0
4 706 7 1568 7 1730 0 1633 -4 1708 62 19 17 44 48 54 68 10 20 172 536 360
1146 307 997 341 1115 338 1164 -7 90 -55 166 -132 208 -29 16 -187 17 -2471
22 l-2439 5 -98 260 c-174 462 -188 495 -227 538 -70 78 -58 77 -571 76 -384
0 -460 -2 -490 -15z m2934 -1391 c3 -21 13 -135 21 -253 9 -118 20 -264 25
-325 6 -60 10 -118 10 -128 0 -16 -32 -17 -566 -15 l-567 3 -138 365 c-76 201
-138 371 -139 378 0 9 141 12 674 12 l674 0 6 -37z m1406 0 c0 -21 -11 -177
-25 -348 -14 -170 -25 -325 -25 -342 l0 -33 -525 0 -524 0 -5 33 c-3 17 -10
102 -16 187 -6 85 -18 236 -26 335 -8 99 -14 185 -14 192 0 10 119 13 580 13
l580 0 0 -37z m1510 30 c0 -5 -51 -174 -113 -378 l-114 -370 -547 -3 -546 -2
5 52 c6 54 55 680 55 698 0 7 220 10 630 10 347 0 630 -3 630 -7z m-2835
-1065 c8 -87 45 -567 45 -590 0 -17 -17 -18 -427 -16 l-427 3 -30 75 c-78 203
-216 573 -216 581 0 5 221 9 524 9 l524 0 7 -62z m1247 10 c-2 -29 -13 -179
-25 -333 l-22 -280 -452 -3 -452 -2 -5 42 c-6 47 -46 572 -46 606 l0 22 503 0
504 0 -5 -52z m1278 45 c0 -7 -91 -307 -166 -550 l-35 -113 -441 0 -440 0 6
58 c7 64 46 567 46 595 0 16 31 17 515 17 283 0 515 -3 515 -7z m-3082 -2032
c22 -11 53 -35 69 -55 109 -123 44 -323 -120 -367 -89 -24 -193 22 -243 107
-40 68 -41 159 -1 227 62 105 188 143 295 88z m2767 18 c55 -14 122 -70 146
-123 10 -23 19 -64 19 -94 1 -177 -184 -286 -335 -198 -167 98 -137 354 48
412 53 16 68 17 122 3z"/>
</g>
</svg>
